<?xml version="1.0" standalone="no"?>
<!DOCTYPE svg PUBLIC "-//W3C//DTD SVG 20010904//EN"
 "http://www.w3.org/TR/2001/REC-SVG-20010904/DTD/svg10.dtd">
<svg version="1.0" xmlns="http://www.w3.org/2000/svg"
 width="500.000000pt" height="500.000000pt" viewBox="0 0 500.000000 500.000000"
 preserveAspectRatio="xMidYMid meet">

<g transform="translate(0.000000,500.000000) scale(0.100000,-0.100000)"
fill="#000000" stroke="none">
<path d="M2249 4140 c-143 -44 -253 -139 -321 -276 -41 -84 -43 -91 -45 -186
-1 -54 -6 -104 -11 -111 -46 -59 -39 -228 12 -287 7 -8 19 -38 26 -67 17 -73
62 -137 114 -162 23 -12 47 -21 53 -21 6 0 16 -13 21 -30 6 -16 25 -50 43 -76
l31 -46 -34 -36 c-20 -21 -38 -44 -41 -53 -3 -10 -23 -23 -44 -29 -127 -42
-316 -164 -411 -265 -129 -139 -204 -298 -328 -694 -3 -9 -8 -11 -14 -5 -20
20 -102 222 -127 312 -24 90 -26 112 -27 307 -1 191 1 218 23 300 37 142 110
297 207 445 48 72 211 237 293 297 47 35 99 74 115 88 26 23 27 27 14 47 -8
12 -19 23 -25 25 -32 11 -281 -189 -376 -302 -227 -269 -337 -561 -337 -896 0
-241 63 -479 177 -667 l44 -72 -12 -81 c-14 -96 -7 -198 17 -259 24 -62 85
-150 130 -190 26 -22 44 -51 57 -88 60 -180 237 -294 431 -279 83 7 146 27
194 64 31 23 34 29 29 66 l-5 39 156 -8 c194 -11 218 -11 419 0 l161 8 -5 -39
c-5 -37 -2 -42 28 -65 108 -79 290 -88 423 -21 99 50 186 157 212 257 4 16 32
55 63 86 115 116 152 235 131 409 l-12 99 41 67 c79 132 138 303 167 482 20
127 15 345 -11 458 -77 345 -266 638 -544 844 -111 82 -138 96 -157 80 -34
-28 -16 -54 86 -129 151 -109 311 -283 383 -414 140 -256 182 -423 174 -686
-4 -150 -16 -226 -54 -345 -22 -72 -104 -245 -113 -240 -5 3 -14 29 -20 57
-23 95 -101 301 -163 426 -52 105 -74 137 -144 212 -50 53 -114 108 -161 138
-90 58 -224 127 -265 137 -16 4 -31 15 -34 24 -3 9 -21 32 -40 52 l-34 36 36
58 c19 32 37 66 40 76 3 9 18 20 33 24 75 18 137 92 153 182 5 24 17 55 27 68
45 56 55 199 20 275 -10 21 -18 73 -21 128 -4 85 -9 102 -45 175 -66 132 -171
225 -308 272 -63 21 -86 23 -254 23 -147 0 -196 -4 -241 -18z m241 -71 c8 0
43 3 77 7 128 14 247 -36 347 -147 52 -58 106 -160 106 -201 0 -28 -1 -28 -27
-15 -16 8 -56 17 -89 20 -81 8 -162 39 -209 81 l-39 33 33 6 c27 6 32 11 29
29 -3 20 -10 23 -59 26 -46 2 -65 -2 -112 -27 l-56 -30 -55 30 c-46 25 -64 30
-113 27 -47 -2 -58 -6 -61 -22 -5 -22 13 -36 47 -36 23 0 23 -1 7 -19 -38 -41
-136 -83 -230 -97 -70 -10 -95 -18 -108 -35 l-18 -21 0 24 c0 79 58 188 140
261 103 93 173 120 295 111 44 -3 87 -5 95 -5z m4 -289 c11 1 38 7 59 15 l39
13 35 -39 c23 -25 68 -55 119 -80 79 -38 84 -43 95 -82 16 -62 39 -170 39
-189 0 -27 -27 -21 -34 7 -3 13 -23 42 -44 64 -41 43 -87 58 -147 47 -39 -8
-100 -56 -110 -87 -5 -15 -16 -19 -54 -19 -45 0 -50 2 -75 41 -42 63 -117 85
-189 55 -38 -15 -84 -66 -93 -102 -8 -30 -34 -32 -34 -1 1 33 46 217 56 226 5
5 29 16 54 25 57 22 144 81 164 111 15 23 17 24 57 10 23 -8 51 -15 63 -15z
m-354 -138 c0 -11 -60 -67 -87 -81 -17 -9 -24 -24 -29 -61 -4 -28 -10 -50 -15
-50 -4 0 -23 -16 -42 -35 l-34 -35 -6 28 c-18 88 64 211 156 232 44 11 57 11
57 2z m811 -23 c65 -46 109 -120 109 -186 0 -51 -10 -52 -56 -8 -24 24 -44 47
-44 52 0 42 -25 86 -65 114 -63 45 -67 63 -13 54 24 -4 55 -16 69 -26z m-592
-175 c26 -22 31 -33 31 -71 0 -36 -6 -50 -29 -74 -66 -66 -171 -20 -171 74 0
38 5 49 31 71 21 18 42 26 69 26 27 0 48 -8 69 -26z m400 -1 c45 -42 46 -100
2 -144 -54 -54 -150 -33 -167 37 -10 41 3 97 28 116 37 28 102 24 137 -9z
m-228 -109 c7 -36 32 -72 68 -100 19 -14 42 -19 86 -19 82 0 114 18 145 82 14
29 31 53 37 53 17 0 8 -63 -28 -208 -39 -157 -89 -230 -211 -309 -38 -25 -52
-28 -128 -28 -105 0 -156 22 -240 104 -67 66 -92 118 -125 256 -36 154 -40
185 -21 185 9 0 16 -8 16 -18 0 -30 50 -93 86 -108 42 -18 95 -18 137 0 31 13
87 68 87 86 0 5 4 21 10 35 8 22 15 26 42 23 27 -2 33 -8 39 -34z m-482 -181
c2 -24 -19 -13 -39 20 -22 36 -26 101 -8 144 10 26 12 22 29 -62 10 -49 18
-96 18 -102z m939 134 c11 -41 4 -79 -23 -120 -32 -49 -43 -41 -29 21 6 32 15
79 19 106 7 53 18 51 33 -7z m-748 -527 c0 -61 75 -146 150 -169 25 -8 46 -16
48 -17 8 -5 -42 -90 -62 -106 -52 -42 -129 -9 -170 73 -22 45 -26 66 -26 140
0 89 3 96 43 98 11 1 17 -6 17 -19z m554 4 c12 -11 16 -35 16 -88 0 -59 -5
-82 -27 -127 -62 -122 -166 -131 -223 -18 -24 45 -24 49 -6 49 7 0 34 9 59 20
58 26 115 92 123 142 7 42 30 51 58 22z m-304 -49 c69 0 93 5 127 23 l42 22
-10 -28 c-5 -15 -26 -38 -46 -52 -31 -21 -48 -25 -112 -25 -85 0 -128 21 -157
76 l-15 30 43 -23 c35 -19 59 -23 128 -23z m-415 -57 c-6 -31 -23 -218 -31
-355 l-7 -113 -57 0 -57 0 4 33 c10 75 54 346 64 388 9 40 15 48 42 57 46 15
48 14 42 -10z m873 11 c28 -9 32 -17 46 -77 8 -37 24 -130 36 -207 11 -77 22
-152 25 -167 4 -28 4 -28 -55 -28 l-60 0 0 53 c0 64 -28 380 -36 413 -7 27 -1
29 44 13z m300 -207 c76 -67 134 -143 138 -185 2 -17 13 -40 23 -51 24 -26 68
-136 133 -331 75 -227 101 -346 96 -430 -5 -74 -37 -153 -77 -189 -21 -19 -21
-19 -21 6 0 60 -66 195 -122 248 -12 12 -43 32 -68 45 l-45 23 39 7 c21 4 65
5 97 1 51 -5 60 -3 69 13 34 64 -148 84 -259 29 -48 -23 -51 -24 -51 -6 0 37
94 108 143 108 13 0 32 6 42 14 16 12 17 16 6 30 -19 22 -96 20 -150 -4 -24
-11 -45 -19 -46 -18 -1 2 -7 66 -14 143 -14 164 -33 299 -68 485 -14 74 -28
148 -31 164 l-5 30 54 -39 c30 -21 82 -63 117 -93z m-1348 106 c0 -7 -4 -29
-10 -48 -26 -97 -75 -413 -91 -590 -6 -74 -15 -139 -20 -144 -4 -4 -27 -1 -51
8 -26 10 -64 16 -94 14 -41 -3 -49 -6 -52 -24 -3 -22 19 -34 64 -34 46 0 153
-94 132 -116 -3 -2 -25 5 -49 18 -32 16 -64 23 -128 25 -100 4 -136 -8 -136
-47 0 -24 2 -25 59 -22 32 2 79 1 105 -3 l46 -7 -46 -23 c-25 -13 -62 -42 -83
-66 -45 -49 -96 -152 -103 -209 l-6 -41 -23 22 c-40 38 -66 113 -66 199 0 42
3 97 7 121 17 108 128 452 184 569 17 36 31 70 31 76 0 6 22 45 48 85 48 72
132 155 222 217 50 35 60 38 60 20z m687 -183 c76 -32 176 -7 225 55 l26 33 7
-124 c3 -68 9 -132 11 -141 5 -17 -17 -18 -362 -18 l-367 0 6 98 c4 53 7 117
7 142 l1 45 38 -44 c41 -48 54 -53 148 -55 69 -1 102 16 138 72 l20 31 34 -40
c18 -22 49 -46 68 -54z m483 -282 c0 -5 7 -75 15 -158 8 -82 15 -207 15 -277
l0 -128 -59 0 c-45 0 -69 6 -107 28 -43 24 -60 27 -139 27 -70 1 -96 5 -118
19 -16 11 -53 20 -90 23 -55 4 -68 2 -121 -26 -33 -18 -62 -28 -65 -24 -16 22
-68 54 -104 64 -104 28 -212 1 -283 -72 -34 -35 -43 -39 -86 -39 l-48 0 0 133
c0 72 7 200 15 282 8 83 15 151 15 153 0 6 1160 1 1160 -5z m-774 -534 c38
-12 87 -59 60 -59 -9 0 -42 -9 -73 -20 -60 -21 -115 -66 -140 -115 -16 -29
-16 -29 -24 -7 -10 25 -26 28 -54 8 -20 -13 -55 -18 -53 -7 1 3 -2 13 -6 23
-10 21 28 109 59 138 54 51 143 66 231 39z m338 -18 c2 -3 -12 -25 -32 -49
l-37 -42 -58 22 -58 21 24 25 c13 13 39 27 58 31 36 7 97 3 103 -8z m223 -36
c80 -24 147 -115 112 -151 -12 -11 -20 -10 -56 8 -85 43 -103 -10 -20 -60 55
-33 81 -39 92 -22 9 14 58 13 73 -2 16 -16 15 -63 -2 -77 -7 -6 -32 -9 -57 -7
-24 3 -60 5 -80 5 -36 1 -37 2 -44 48 -5 34 -16 56 -41 81 -30 30 -38 34 -77
29 -23 -2 -51 -7 -62 -11 -12 -4 -29 1 -45 13 -24 19 -24 20 -8 54 25 51 90
95 159 106 3 1 28 -6 56 -14z m-1057 -5 c12 -7 9 -16 -17 -52 -18 -24 -37 -42
-42 -40 -34 7 -36 6 -36 -28 0 -24 -12 -53 -37 -92 -64 -96 -50 -157 57 -258
20 -19 41 -45 46 -57 9 -25 96 -56 207 -73 37 -6 68 -12 69 -14 2 -2 -20 -10
-48 -19 -109 -36 -247 -15 -338 51 -62 45 -95 92 -121 173 -48 153 6 326 125
400 32 20 109 25 135 9z m1532 -23 c23 -18 55 -52 71 -75 34 -51 61 -169 52
-232 -20 -143 -65 -214 -177 -275 -63 -34 -83 -39 -154 -43 -59 -3 -97 0 -140
13 -57 17 -58 18 -29 26 17 4 59 12 95 18 94 17 160 42 160 61 0 9 19 34 41
55 115 111 126 164 55 268 -34 49 -41 68 -34 81 15 27 2 49 -21 36 -17 -8 -22
-6 -32 12 -6 13 -20 33 -31 45 -28 31 -15 43 47 43 45 0 60 -5 97 -33z m-1402
-46 c0 -41 -15 -71 -41 -81 -33 -14 -69 -80 -69 -128 0 -32 0 -32 -50 -32 -27
0 -50 5 -50 10 0 14 75 125 128 188 38 46 82 69 82 43z m1205 -44 c60 -80 125
-176 125 -187 0 -6 -22 -10 -50 -10 l-50 0 0 38 c0 45 -30 97 -69 120 -16 9
-29 23 -28 32 0 8 -3 25 -7 38 -6 19 -4 22 16 21 16 0 36 -17 63 -52z m-660 9
c28 -12 76 -43 106 -68 82 -67 95 -73 124 -54 47 31 85 14 85 -36 0 -16 -7
-31 -18 -37 -10 -5 -144 -10 -306 -10 l-289 -1 5 54 c6 69 39 115 110 150 65
32 117 33 183 2z m-373 -139 l-16 -67 -81 1 c-84 1 -95 7 -95 48 0 51 54 78
91 45 16 -14 21 -14 57 5 23 11 44 26 47 32 13 21 12 3 -3 -64z m1071 -192
l-38 -44 -642 -1 -643 0 -34 38 -35 37 72 6 c40 3 361 6 715 7 l643 2 -38 -45z"/>
<path d="M2268 3389 c-10 -5 -18 -21 -18 -34 0 -29 3 -30 30 -13 16 10 24 10
40 0 17 -10 21 -10 27 4 14 38 -39 67 -79 43z"/>
<path d="M2636 3381 c-9 -10 -14 -25 -10 -35 7 -19 9 -19 34 -4 16 10 24 10
40 0 26 -16 30 -15 30 7 0 46 -62 67 -94 32z"/>
<path d="M2432 3153 c4 -34 44 -52 86 -37 19 7 28 17 30 37 3 26 -11 37 -23
17 -3 -5 -19 -10 -35 -10 -16 0 -32 5 -35 10 -12 20 -26 9 -23 -17z"/>
<path d="M2341 3079 c-27 -25 -23 -43 10 -46 13 0 42 -11 64 -22 49 -26 97
-26 154 -1 24 11 54 20 67 20 31 0 33 33 3 54 -19 13 -24 12 -55 -9 -19 -13
-48 -26 -63 -30 -38 -8 -103 10 -126 35 -23 25 -26 25 -54 -1z"/>
<path d="M2466 2399 c3 -5 0 -9 -5 -9 -15 0 -14 -33 1 -48 30 -30 82 7 55 40
-13 17 -61 32 -51 17z"/>
<path d="M2453 2254 c-8 -22 10 -49 32 -49 10 0 22 7 28 16 15 24 1 49 -28 49
-15 0 -28 -7 -32 -16z"/>
<path d="M2166 1864 c-19 -19 -17 -33 7 -48 24 -15 56 17 41 41 -15 24 -29 26
-48 7z"/>
<path d="M2764 1855 c-10 -25 4 -45 31 -45 21 0 25 5 25 30 0 25 -4 30 -25 30
-14 0 -28 -7 -31 -15z"/>
<path d="M1144 3386 c-9 -24 4 -48 23 -44 12 2 18 12 18 28 0 29 -32 41 -41
16z"/>
<path d="M3786 3384 c-9 -22 17 -49 39 -40 10 3 15 15 13 28 -4 29 -42 37 -52
12z"/>
<path d="M927 3003 c-13 -12 -7 -44 9 -50 20 -7 45 22 37 43 -5 14 -35 19 -46
7z"/>
<path d="M4006 2994 c-9 -22 17 -49 39 -40 10 3 15 15 13 28 -4 29 -42 37 -52
12z"/>
<path d="M1390 2827 c-8 -17 -25 -36 -37 -42 -29 -13 -29 -19 3 -33 14 -7 30
-26 36 -42 13 -38 23 -38 34 2 7 23 18 34 44 43 l35 12 -36 16 c-25 10 -40 25
-47 46 -6 17 -12 31 -14 31 -2 0 -10 -15 -18 -33z"/>
<path d="M3550 2846 c0 -22 -40 -66 -61 -66 -29 0 -23 -17 11 -29 20 -7 34
-21 41 -41 14 -38 25 -38 33 0 4 23 14 34 36 41 37 13 38 25 4 33 -16 4 -30
19 -40 41 -15 37 -24 44 -24 21z"/>
<path d="M1247 2510 c-8 -29 11 -89 32 -102 15 -9 17 -16 8 -44 l-10 -33 -24
25 c-31 33 -47 27 -51 -21 -4 -50 3 -78 31 -112 13 -15 29 -47 36 -70 12 -45
31 -58 31 -23 0 11 4 20 9 20 19 0 71 52 71 71 0 24 -46 26 -72 2 -17 -15 -18
-15 -18 5 0 14 14 30 40 47 39 25 80 77 80 103 0 23 -51 12 -81 -18 -27 -27
-30 -27 -23 -7 9 29 24 47 39 47 19 0 75 68 75 90 0 28 -44 26 -72 -2 -16 -16
-23 -18 -26 -9 -7 21 -40 51 -56 51 -7 0 -16 -9 -19 -20z"/>
<path d="M3669 2501 c-21 -28 -22 -28 -40 -10 -10 10 -30 19 -44 19 -20 0 -25
-5 -25 -24 0 -27 50 -86 74 -86 8 0 23 -14 32 -32 l17 -32 -32 27 c-32 27 -81
37 -81 17 0 -27 34 -72 75 -100 28 -19 45 -38 45 -51 0 -19 -1 -19 -22 -5 -30
22 -68 21 -68 -1 0 -20 48 -73 67 -73 7 0 13 -10 13 -21 0 -32 26 -7 34 32 3
16 18 46 33 66 22 29 28 47 28 91 0 64 -13 75 -49 39 l-25 -25 -10 29 c-8 25
-7 33 9 49 20 20 36 81 26 105 -9 24 -33 18 -57 -14z"/>
<path d="M1244 2046 c-10 -26 4 -48 28 -44 17 2 23 10 23 28 0 18 -6 26 -23
28 -13 2 -25 -3 -28 -12z"/>
<path d="M3682 2048 c-16 -16 -15 -23 3 -42 28 -27 69 10 44 40 -14 17 -31 18
-47 2z"/>
</g>
</svg>
